# Blender v2.74 (sub 0) OBJ File: 'Coffie_table.blend'
# www.blender.org
mtllib Coffie_table.mtl
o Plane
v -1.526974 1.601760 1.187435
v -1.879479 1.601760 0.964726
v -1.557697 1.601760 1.186587
v -1.588186 1.601760 1.184051
v -1.618209 1.601760 1.179846
v -1.647538 1.601760 1.174004
v -1.675949 1.601760 1.166569
v -1.703227 1.601760 1.157598
v -1.729163 1.601760 1.147158
v -1.753560 1.601760 1.135331
v -1.776233 1.601760 1.122205
v -1.797009 1.601760 1.107880
v -1.815730 1.601760 1.092466
v -1.832253 1.601760 1.076080
v -1.846452 1.601760 1.058847
v -1.858221 1.601760 1.040897
v -1.867468 1.601760 1.022367
v -1.874124 1.601760 1.003399
v -1.878138 1.601760 0.984136
v 1.879479 1.601760 0.964726
v 1.526974 1.601760 1.187435
v 1.878138 1.601760 0.984136
v 1.874124 1.601760 1.003399
v 1.867468 1.601760 1.022367
v 1.858221 1.601760 1.040897
v 1.846452 1.601760 1.058847
v 1.832253 1.601760 1.076080
v 1.815730 1.601760 1.092466
v 1.797009 1.601760 1.107880
v 1.776233 1.601760 1.122205
v 1.753560 1.601760 1.135331
v 1.729163 1.601760 1.147158
v 1.703227 1.601760 1.157598
v 1.675949 1.601760 1.166569
v 1.647538 1.601760 1.174004
v 1.618209 1.601760 1.179846
v 1.588186 1.601760 1.184051
v 1.557697 1.601760 1.186587
v -1.879479 1.601760 -0.964726
v -1.526974 1.601760 -1.187435
v -1.878138 1.601760 -0.984136
v -1.874124 1.601760 -1.003399
v -1.867468 1.601760 -1.022367
v -1.858221 1.601760 -1.040897
v -1.846452 1.601760 -1.058847
v -1.832253 1.601760 -1.076080
v -1.815730 1.601760 -1.092466
v -1.797009 1.601760 -1.107880
v -1.776233 1.601760 -1.122205
v -1.753560 1.601760 -1.135331
v -1.729163 1.601760 -1.147158
v -1.703227 1.601760 -1.157598
v -1.675949 1.601760 -1.166569
v -1.647538 1.601760 -1.174004
v -1.618209 1.601760 -1.179846
v -1.588186 1.601760 -1.184051
v -1.557697 1.601760 -1.186587
v 1.526974 1.601760 -1.187435
v 1.879479 1.601760 -0.964726
v 1.557697 1.601760 -1.186587
v 1.588186 1.601760 -1.184051
v 1.618209 1.601760 -1.179846
v 1.647538 1.601760 -1.174004
v 1.675949 1.601760 -1.166569
v 1.703227 1.601760 -1.157598
v 1.729163 1.601760 -1.147158
v 1.753560 1.601760 -1.135331
v 1.776233 1.601760 -1.122205
v 1.797009 1.601760 -1.107880
v 1.815730 1.601760 -1.092466
v 1.832253 1.601760 -1.076080
v 1.846452 1.601760 -1.058847
v 1.858221 1.601760 -1.040897
v 1.867468 1.601760 -1.022367
v 1.874124 1.601760 -1.003399
v 1.878138 1.601760 -0.984136
v -1.526974 1.667451 -1.187435
v -1.879479 1.667451 -0.964726
v -1.557697 1.667451 -1.186587
v -1.588186 1.667451 -1.184051
v -1.618209 1.667451 -1.179846
v -1.647538 1.667451 -1.174004
v -1.675949 1.667451 -1.166569
v -1.703227 1.667451 -1.157598
v -1.729163 1.667451 -1.147158
v -1.753560 1.667451 -1.135331
v -1.776233 1.667451 -1.122205
v -1.797009 1.667451 -1.107880
v -1.815730 1.667451 -1.092466
v -1.832253 1.667451 -1.076080
v -1.846452 1.667451 -1.058847
v -1.858221 1.667451 -1.040897
v -1.867468 1.667451 -1.022367
v -1.874124 1.667451 -1.003399
v -1.878138 1.667451 -0.984136
v -1.879479 1.667451 0.964726
v -1.526974 1.667451 1.187435
v -1.878138 1.667451 0.984136
v -1.874124 1.667451 1.003399
v -1.867468 1.667451 1.022367
v -1.858221 1.667451 1.040897
v -1.846452 1.667451 1.058847
v -1.832253 1.667451 1.076080
v -1.815730 1.667451 1.092466
v -1.797009 1.667451 1.107880
v -1.776233 1.667451 1.122205
v -1.753560 1.667451 1.135331
v -1.729163 1.667451 1.147158
v -1.703227 1.667451 1.157598
v -1.675949 1.667451 1.166569
v -1.647538 1.667451 1.174004
v -1.618209 1.667451 1.179846
v -1.588186 1.667451 1.184051
v -1.557697 1.667451 1.186587
v 1.526974 1.667451 1.187435
v 1.879479 1.667451 0.964726
v 1.557697 1.667451 1.186587
v 1.588186 1.667451 1.184051
v 1.618209 1.667451 1.179846
v 1.647538 1.667451 1.174004
v 1.675949 1.667451 1.166569
v 1.703227 1.667451 1.157598
v 1.729163 1.667451 1.147158
v 1.753560 1.667451 1.135331
v 1.776233 1.667451 1.122205
v 1.797009 1.667451 1.107880
v 1.815730 1.667451 1.092466
v 1.832253 1.667451 1.076080
v 1.846452 1.667451 1.058847
v 1.858221 1.667451 1.040897
v 1.867468 1.667451 1.022367
v 1.874124 1.667451 1.003399
v 1.878138 1.667451 0.984136
v 1.879479 1.667451 -0.964726
v 1.526974 1.667451 -1.187435
v 1.878138 1.667451 -0.984136
v 1.874124 1.667451 -1.003399
v 1.867468 1.667451 -1.022367
v 1.858221 1.667451 -1.040897
v 1.846452 1.667451 -1.058847
v 1.832253 1.667451 -1.076080
v 1.815730 1.667451 -1.092466
v 1.797009 1.667451 -1.107880
v 1.776233 1.667451 -1.122205
v 1.753560 1.667451 -1.135331
v 1.729163 1.667451 -1.147158
v 1.703227 1.667451 -1.157598
v 1.675949 1.667451 -1.166569
v 1.647538 1.667451 -1.174004
v 1.618209 1.667451 -1.179846
v 1.588186 1.667451 -1.184051
v 1.557697 1.667451 -1.186587
vn 0.000000 0.000000 1.000000
vn 0.000000 0.000000 -1.000000
vn -1.000000 0.000000 0.000000
vn 1.000000 0.000000 0.000000
vn 0.000000 1.000000 -0.000000
vn 0.027600 0.000000 0.999600
vn 0.082900 0.000000 0.996600
vn 0.138700 0.000000 0.990300
vn 0.195400 0.000000 0.980700
vn 0.253200 0.000000 0.967400
vn 0.312400 0.000000 0.949900
vn 0.373400 0.000000 0.927700
vn 0.436200 0.000000 0.899800
vn 0.501000 0.000000 0.865400
vn 0.567600 0.000000 0.823300
vn 0.635600 0.000000 0.772000
vn 0.704200 0.000000 0.710000
vn 0.771800 0.000000 0.635900
vn 0.836300 0.000000 0.548300
vn 0.894800 0.000000 0.446500
vn 0.943600 0.000000 0.331100
vn 0.979000 0.000000 0.204000
vn 0.997600 0.000000 0.068900
vn 0.027600 0.000000 -0.999600
vn 0.082900 -0.000000 -0.996600
vn 0.138700 -0.000000 -0.990300
vn 0.195400 0.000000 -0.980700
vn 0.253200 0.000000 -0.967400
vn 0.312400 0.000000 -0.949900
vn 0.373400 0.000000 -0.927700
vn 0.436200 0.000000 -0.899800
vn 0.501000 0.000000 -0.865400
vn 0.567600 0.000000 -0.823300
vn 0.635600 0.000000 -0.772000
vn 0.704200 0.000000 -0.710000
vn 0.771800 0.000000 -0.635900
vn 0.836300 -0.000000 -0.548300
vn 0.894800 0.000000 -0.446500
vn 0.943600 0.000000 -0.331100
vn 0.979000 0.000000 -0.204000
vn 0.997600 0.000000 -0.068900
vn -0.997600 0.000000 0.068900
vn -0.979000 0.000000 0.204000
vn -0.943600 0.000000 0.331100
vn -0.894800 0.000000 0.446500
vn -0.836300 0.000000 0.548300
vn -0.771800 0.000000 0.635900
vn -0.704200 0.000000 0.710000
vn -0.635600 0.000000 0.772000
vn -0.567600 0.000000 0.823300
vn -0.501000 0.000000 0.865400
vn -0.436200 0.000000 0.899800
vn -0.373400 0.000000 0.927700
vn -0.312400 0.000000 0.949900
vn -0.253200 0.000000 0.967400
vn -0.195400 0.000000 0.980700
vn -0.138700 -0.000000 0.990300
vn -0.082900 -0.000000 0.996600
vn -0.027600 0.000000 0.999600
vn -0.027600 0.000000 -0.999600
vn -0.082900 0.000000 -0.996600
vn -0.138700 0.000000 -0.990300
vn -0.195400 0.000000 -0.980700
vn -0.253200 0.000000 -0.967400
vn -0.312400 0.000000 -0.949900
vn -0.373400 0.000000 -0.927700
vn -0.436200 0.000000 -0.899800
vn -0.501000 0.000000 -0.865400
vn -0.567600 0.000000 -0.823300
vn -0.635600 0.000000 -0.772000
vn -0.704200 0.000000 -0.710000
vn -0.771800 0.000000 -0.635900
vn -0.836300 0.000000 -0.548300
vn -0.894800 0.000000 -0.446500
vn -0.943600 0.000000 -0.331100
vn -0.979000 0.000000 -0.204000
vn -0.997600 0.000000 -0.068900
vn 0.000000 -1.000000 0.000000
usemtl Material
s off
f 1//1 21//1 115//1 97//1
f 58//2 40//2 77//2 135//2
f 39//3 2//3 96//3 78//3
f 20//4 59//4 134//4 116//4
f 96//5 98//5 99//5 100//5 101//5 102//5 103//5 104//5 105//5 106//5 107//5 108//5 109//5 110//5 111//5 112//5 113//5 114//5 97//5 115//5 117//5 118//5 119//5 120//5 121//5 122//5 123//5 124//5 125//5 126//5 127//5 128//5 129//5 130//5 131//5 132//5 133//5 116//5 134//5 136//5 137//5 138//5 139//5 140//5 141//5 142//5 143//5 144//5 145//5 146//5 147//5 148//5 149//5 150//5 151//5 152//5 135//5 77//5 79//5 80//5 81//5 82//5 83//5 84//5 85//5 86//5 87//5 88//5 89//5 90//5 91//5 92//5 93//5 94//5 95//5 78//5
f 115//6 21//6 38//6 117//6
f 117//7 38//7 37//7 118//7
f 118//8 37//8 36//8 119//8
f 119//9 36//9 35//9 120//9
f 120//10 35//10 34//10 121//10
f 121//11 34//11 33//11 122//11
f 122//12 33//12 32//12 123//12
f 123//13 32//13 31//13 124//13
f 124//14 31//14 30//14 125//14
f 125//15 30//15 29//15 126//15
f 126//16 29//16 28//16 127//16
f 127//17 28//17 27//17 128//17
f 128//18 27//18 26//18 129//18
f 129//19 26//19 25//19 130//19
f 130//20 25//20 24//20 131//20
f 131//21 24//21 23//21 132//21
f 132//22 23//22 22//22 133//22
f 133//23 22//23 20//23 116//23
f 58//24 135//24 152//24 60//24
f 60//25 152//25 151//25 61//25
f 61//26 151//26 150//26 62//26
f 62//27 150//27 149//27 63//27
f 63//28 149//28 148//28 64//28
f 64//29 148//29 147//29 65//29
f 65//30 147//30 146//30 66//30
f 66//31 146//31 145//31 67//31
f 67//32 145//32 144//32 68//32
f 68//33 144//33 143//33 69//33
f 69//34 143//34 142//34 70//34
f 70//35 142//35 141//35 71//35
f 71//36 141//36 140//36 72//36
f 72//37 140//37 139//37 73//37
f 73//38 139//38 138//38 74//38
f 74//39 138//39 137//39 75//39
f 75//40 137//40 136//40 76//40
f 76//41 136//41 134//41 59//41
f 96//42 2//42 19//42 98//42
f 98//43 19//43 18//43 99//43
f 99//44 18//44 17//44 100//44
f 100//45 17//45 16//45 101//45
f 101//46 16//46 15//46 102//46
f 102//47 15//47 14//47 103//47
f 103//48 14//48 13//48 104//48
f 104//49 13//49 12//49 105//49
f 105//50 12//50 11//50 106//50
f 106//51 11//51 10//51 107//51
f 107//52 10//52 9//52 108//52
f 108//53 9//53 8//53 109//53
f 109//54 8//54 7//54 110//54
f 110//55 7//55 6//55 111//55
f 111//56 6//56 5//56 112//56
f 112//57 5//57 4//57 113//57
f 113//58 4//58 3//58 114//58
f 114//59 3//59 1//59 97//59
f 77//60 40//60 57//60 79//60
f 79//61 57//61 56//61 80//61
f 80//62 56//62 55//62 81//62
f 81//63 55//63 54//63 82//63
f 82//64 54//64 53//64 83//64
f 83//65 53//65 52//65 84//65
f 84//66 52//66 51//66 85//66
f 85//67 51//67 50//67 86//67
f 86//68 50//68 49//68 87//68
f 87//69 49//69 48//69 88//69
f 88//70 48//70 47//70 89//70
f 89//71 47//71 46//71 90//71
f 90//72 46//72 45//72 91//72
f 91//73 45//73 44//73 92//73
f 92//74 44//74 43//74 93//74
f 93//75 43//75 42//75 94//75
f 94//76 42//76 41//76 95//76
f 95//77 41//77 39//77 78//77
f 1//78 3//78 4//78 5//78 6//78 7//78 8//78 9//78 10//78 11//78 12//78 13//78 14//78 15//78 16//78 17//78 18//78 19//78 2//78 39//78 41//78 42//78 43//78 44//78 45//78 46//78 47//78 48//78 49//78 50//78 51//78 52//78 53//78 54//78 55//78 56//78 57//78 40//78 58//78 60//78 61//78 62//78 63//78 64//78 65//78 66//78 67//78 68//78 69//78 70//78 71//78 72//78 73//78 74//78 75//78 76//78 59//78 20//78 22//78 23//78 24//78 25//78 26//78 27//78 28//78 29//78 30//78 31//78 32//78 33//78 34//78 35//78 36//78 37//78 38//78 21//78
o Cube.001
v 1.089951 0.426259 -0.528840
v 0.450184 0.426259 -0.528840
v 0.450184 0.426259 -0.574662
v 1.089951 0.426259 -0.574662
v 1.089951 0.996067 -0.528840
v 1.089951 0.996067 -0.574662
v 0.450184 0.996067 -0.528840
v -1.089951 1.565874 -0.574662
v 1.089951 1.565874 -0.574662
v 0.450184 1.549777 -0.574662
v -0.450184 1.549777 -0.574662
v -0.450184 0.426259 -0.574662
v -1.089951 0.426259 -0.574662
v -1.089951 0.996067 -0.574662
v 1.089951 1.565874 -0.528840
v 1.089951 1.521784 -0.528840
v -1.089951 1.565874 -0.528840
v -1.089951 1.538470 -0.528840
v -1.089951 0.996067 -0.528840
v -0.450184 0.996067 -0.528840
v -0.450184 1.549777 -0.528840
v 0.450184 1.549777 -0.528840
v -0.450184 0.426259 -0.528840
v -1.089951 0.426259 -0.528840
v -0.450184 0.426259 0.689338
v -1.089951 0.426259 0.689338
v -1.089951 0.426259 0.657986
v -0.450184 0.426259 0.657986
v 1.089951 1.565874 0.689338
v 0.000000 1.565874 0.689338
v -1.089951 1.565874 0.689338
v -1.089951 1.280970 0.689338
v -1.089951 0.996067 0.689338
v -1.089951 0.711163 0.689338
v -0.450184 1.549777 0.689338
v 0.450184 1.549777 0.689338
v 0.450184 0.426259 0.689338
v 1.089951 0.426259 0.689338
v 1.089951 0.711163 0.689338
v 1.089951 0.996067 0.689338
v 1.089951 1.280970 0.689338
v -1.089951 0.711163 0.657986
v -1.089951 0.426259 0.064573
v -0.450184 0.426259 -0.528840
v 1.089951 1.280970 0.657986
v 1.089951 1.565874 0.657986
v -1.089951 1.565874 0.657986
v -1.089951 1.280970 0.657986
v -1.089951 0.996067 0.657986
v 0.450184 0.426259 0.657986
v 1.089951 0.426259 0.657986
v 1.089951 0.711163 0.657986
v 1.089951 0.996067 0.657986
v -1.089951 0.711163 0.625037
v -1.089951 0.469533 0.625037
v -1.089951 0.469533 0.097522
v 1.023668 1.565874 0.591704
v 0.000000 1.565874 0.591704
v -1.023668 1.565874 0.591704
v -1.089951 0.952793 0.625037
v 0.450184 0.426259 -0.528840
v 1.089951 0.426259 0.064573
v 1.089951 0.470330 0.624430
v 1.089951 0.711163 0.624430
v 1.089951 0.951996 0.624430
v -0.450184 0.469767 0.624859
v -0.450184 0.952559 0.624859
v -0.450184 0.469767 0.097700
v -1.089951 0.952793 0.097522
v -1.089951 0.996067 0.064573
v 1.023668 1.565874 0.064573
v 1.089951 1.565874 0.064573
v -1.023668 1.565874 0.064573
v -1.089951 1.565874 0.064573
v 1.089951 0.470330 0.098129
v 0.450184 0.470096 0.624608
v 0.450184 0.952230 0.624608
v 1.089951 0.951996 0.098129
v 1.089951 0.996067 0.064573
v -0.450184 0.952559 0.097700
v -0.450184 0.426259 0.064573
v -0.450184 0.996067 0.064573
v 1.023668 1.565874 -0.462558
v 1.089951 1.521784 0.657986
v 1.089951 1.521784 0.064573
v -1.023668 1.565874 -0.462558
v -1.089951 1.538470 0.064573
v -1.089951 1.538470 0.657986
v -0.450184 0.996067 0.657986
v 0.450184 0.470096 0.097951
v 0.450184 0.952230 0.097951
v 0.450184 0.996067 0.064573
v 0.450184 0.996067 0.657986
v 0.450184 0.426259 0.064573
v -1.089951 1.601751 -0.574662
v 1.089951 1.601751 -0.574662
v 1.089951 1.601751 -0.528840
v -1.089951 1.601751 -0.528840
v 1.089951 1.601751 0.689338
v 0.000000 1.601751 0.689338
v -1.089951 1.601751 0.689338
v 1.089951 1.601751 0.657986
v 0.000000 1.601751 0.657986
v -1.089951 1.601751 0.657986
v 0.000000 1.601751 0.591704
v 1.023668 1.601751 0.591704
v -1.023668 1.601751 0.591704
v 1.089951 1.601751 0.064573
v -1.023668 1.601751 0.064573
v -1.089951 1.601751 0.064573
v 1.023668 1.601751 0.064573
v 1.023668 1.601751 -0.462558
v -1.023668 1.601751 -0.462558
vn 0.000000 -1.000000 0.000000
vn 1.000000 0.000000 0.000000
vn 0.000000 0.000000 1.000000
vn 0.000000 0.000000 -1.000000
vn -1.000000 0.000000 0.000000
vn -0.000300 0.000000 -1.000000
vn -0.000400 1.000000 0.000000
vn -0.000400 -1.000000 0.000000
vn -0.000300 0.000000 1.000000
vn 0.000000 1.000000 0.000000
vn -0.000000 0.605800 -0.795600
usemtl Material.001
s off
f 153//79 154//79 155//79 156//79
f 157//80 153//80 156//80 158//80
f 153//81 157//81 159//81 154//81
f 160//82 161//82 158//82 156//82 155//82 162//82 163//82 164//82 165//82 166//82
f 167//80 168//80 157//80 158//80 161//80
f 157//81 168//81 167//81 169//81 170//81 171//81 172//81 173//81 174//81 159//81
f 171//83 170//83 169//83 160//83 166//83
f 225//80 238//80 265//80 261//80
f 175//79 176//79 165//79 164//79
f 176//83 171//83 166//83 165//83
f 172//81 171//81 176//81 175//81
f 173//80 172//80 175//80 164//80 163//80
f 174//79 173//79 163//79 162//79
f 162//83 155//83 154//83 159//83 174//83
f 177//79 178//79 179//79 180//79
f 181//81 182//81 183//81 184//81 185//81 186//81 178//81 177//81 187//81 188//81 189//81 190//81 191//81 192//81 193//81
f 194//83 179//83 178//83 186//83
f 179//79 195//79 176//79 196//79 180//79
f 197//80 198//80 181//80 193//80
f 211//80 225//80 261//80 259//80
f 183//81 182//81 252//81 253//81
f 199//83 200//83 184//83 183//83
f 200//83 201//83 185//83 184//83
f 201//83 194//83 186//83 185//83
f 202//79 203//79 190//79 189//79
f 203//80 204//80 191//80 190//80
f 204//80 205//80 192//80 191//80
f 205//80 197//80 193//80 192//80
f 206//83 207//83 179//83 194//83
f 207//83 208//83 195//83 179//83
f 209//82 210//82 257//82 258//82
f 226//83 199//83 256//83 262//83
f 212//83 206//83 194//83 201//83
f 213//79 153//79 214//79 203//79 202//79
f 215//80 216//80 204//80 203//80
f 216//80 217//80 205//80 204//80
f 218//84 207//84 206//84 212//84 219//84
f 220//85 208//85 207//85 218//85
f 208//83 221//83 222//83 195//83
f 199//83 183//83 253//83 256//83
f 161//82 160//82 247//82 248//82
f 221//83 212//83 201//83 222//83
f 227//80 215//80 203//80 214//80
f 216//84 215//84 228//84 229//84 217//84
f 217//80 230//80 231//80 205//80
f 219//86 212//86 221//86 232//86
f 232//87 221//87 208//87 220//87
f 233//82 195//82 222//82 234//82
f 223//83 209//83 258//83 263//83
f 224//80 198//80 236//80 237//80
f 182//81 181//81 251//81 252//81
f 199//83 226//83 239//83 240//83
f 234//88 222//88 201//88 241//88
f 230//80 227//80 214//80 231//80
f 215//85 227//85 242//85 228//85
f 217//86 229//86 243//86 230//86
f 205//88 231//88 244//88 245//88
f 160//83 169//83 250//83 247//83
f 167//80 224//80 237//80 168//80
f 226//83 169//83 170//83 239//83
f 227//87 230//87 243//87 242//87
f 214//82 246//82 244//82 231//82
f 229//83 245//83 244//83 243//83
f 243//83 244//83 246//83 242//83
f 232//80 234//80 241//80 219//80
f 220//80 233//80 234//80 232//80
f 218//85 228//85 242//85 220//85
f 246//89 233//89 220//89 242//89
f 177//79 233//79 246//79 189//79
f 250//88 249//88 248//88 247//88
f 254//88 255//88 252//88 251//88
f 255//88 256//88 253//88 252//88
f 258//88 257//88 255//88 254//88
f 257//88 259//88 256//88 255//88
f 263//88 258//88 254//88 260//88
f 259//88 261//88 262//88 256//88
f 264//88 263//88 260//88 249//88
f 261//88 265//88 250//88 262//88
f 265//88 264//88 249//88 250//88
f 169//83 226//83 262//83 250//83
f 210//82 211//82 259//82 257//82
f 181//80 198//80 254//80 251//80
f 224//80 167//80 249//80 260//80
f 238//81 235//81 264//81 265//81
f 167//80 161//80 248//80 249//80
f 198//80 224//80 260//80 254//80
f 235//83 223//83 263//83 264//83
usemtl Material
f 197//82 205//82 201//82 200//82 199//82 198//82
f 245//89 229//89 219//89 241//89
f 219//84 229//84 228//84 218//84
f 188//81 187//81 177//81 189//81
l 179 203
